HIERARCHY
ROOT Hips
{
	OFFSET -0.179506 -22.333345 2.821913
	CHANNELS 6 Xposition Yposition Zposition Zrotation Yrotation Xrotation 
	JOINT LeftUpLeg
	{
		OFFSET 6.951974 -9.140623 -0.681533
		CHANNELS 3 Zrotation Yrotation Xrotation
		JOINT LeftLeg
		{
			OFFSET 3.427654 -37.519855 -0.449580
			CHANNELS 3 Zrotation Yrotation Xrotation
			JOINT LeftFoot
			{
				OFFSET -1.359570 -39.796059 -4.369333
				CHANNELS 3 Zrotation Yrotation Xrotation
				JOINT LeftToe
				{
					OFFSET 2.635814 -5.579078 11.928840
					CHANNELS 3 Zrotation Yrotation Xrotation
					End Site
					{
						OFFSET 0.000000 0.000000 0.000000
					}
				}
			}
		}
	}
	JOINT RightUpLeg
	{
		OFFSET -6.767048 -9.052170 -0.431982
		CHANNELS 3 Zrotation Yrotation Xrotation
		JOINT RightLeg
		{
			OFFSET -3.829005 -38.256897 -0.885003
			CHANNELS 3 Zrotation Yrotation Xrotation
			JOINT RightFoot
			{
				OFFSET 1.577377 -39.841461 -4.231180
				CHANNELS 3 Zrotation Yrotation Xrotation
				JOINT RightToe
				{
					OFFSET -2.537174 -4.814398 12.334795
					CHANNELS 3 Zrotation Yrotation Xrotation
					End Site
					{
						OFFSET 0.000000 0.000000 0.000000
					}
				}
			}
		}
	}
	JOINT Spine
	{
		OFFSET -0.253288 10.896323 -2.669631
		CHANNELS 3 Zrotation Yrotation Xrotation
		JOINT Spine1
		{
			OFFSET 0.548704 13.518043 0.109247
			CHANNELS 3 Zrotation Yrotation Xrotation
			JOINT Spine2
			{
				OFFSET 0.145701 5.292222 2.542457
				CHANNELS 3 Zrotation Yrotation Xrotation
				JOINT Neck
				{
					OFFSET -0.277840 21.387037 -4.285703
					CHANNELS 3 Zrotation Yrotation Xrotation
					JOINT Head
					{
						OFFSET 0.515184 6.496960 5.134897
						CHANNELS 3 Zrotation Yrotation Xrotation
						End Site
						{
							OFFSET 0.000000 0.000000 0.000000
						}
					}
				}
				JOINT LeftShoulder
				{
					OFFSET 7.884473 12.174932 -3.408961
					CHANNELS 3 Zrotation Yrotation Xrotation
					JOINT LeftArm
					{
						OFFSET 9.097692 3.046888 -0.886815
						CHANNELS 3 Zrotation Yrotation Xrotation
						JOINT LeftForeArm
						{
							OFFSET 25.961220 -1.277207 -2.745643
							CHANNELS 3 Zrotation Yrotation Xrotation
							JOINT LeftHand
							{
								OFFSET 24.923361 0.898606 -0.117091
								CHANNELS 3 Zrotation Yrotation Xrotation
								End Site
								{
									OFFSET 0.000000 0.000000 0.000000
								}
							}
						}
					}
				}
				JOINT RightShoulder
				{
					OFFSET -8.175920 11.883285 -3.861528
					CHANNELS 3 Zrotation Yrotation Xrotation
					JOINT RightArm
					{
						OFFSET -9.601238 3.255117 -0.914307
						CHANNELS 3 Zrotation Yrotation Xrotation
						JOINT RightForeArm
						{
							OFFSET -25.374195 -1.332924 -2.140099
							CHANNELS 3 Zrotation Yrotation Xrotation
							JOINT RightHand
							{
								OFFSET -25.529810 0.777228 -0.555919
								CHANNELS 3 Zrotation Yrotation Xrotation
								End Site
								{
									OFFSET 0.000000 0.000000 0.000000
								}
							}
						}
					}
				}
			}
		}
	}
}
MOTION
Frames: 12
Frame Time: 0.033333
-10.347017 7.075099 90.216873 -121.648879 2.802519 84.293627 13.689204 5.313187 -6.575954 -6.639767 0.269154 27.908193 1.549218 12.060574 -27.447991 nan nan nan -12.700029 -11.273282 -12.483756 2.686271 -12.246599 23.769879 2.895875 -8.336443 -11.417504 nan nan nan -7.198971 2.157801 4.197974 7.090027 -6.614687 12.077595 1.205848 -0.539557 -6.671203 1.672262 -20.691949 17.320814 5.823576 -17.118658 17.162509 -18.031414 -10.245511 3.613708 -62.117775 -45.889418 32.098973 147.115325 -73.266673 -122.850589 -4.283842 -18.618505 -10.003022 18.807961 5.135214 -2.943241 37.672404 14.988531 -0.053119 -78.841097 55.045148 -59.133052 0.144777 6.361065 -6.821036 
-10.319305 7.106249 90.208199 -121.597235 2.805463 84.327805 13.728967 5.308228 -6.665683 -6.700628 0.303088 27.927711 1.580304 11.990144 -27.453094 nan nan nan -12.720208 -11.212902 -12.496010 2.761510 -12.231823 23.657030 2.928086 -8.308452 -11.297591 nan nan nan -7.155721 2.114867 4.124200 7.027694 -6.646185 12.142628 1.147121 -0.551901 -6.667288 1.850636 -20.575592 17.249414 5.905233 -17.077054 17.168524 -18.038664 -10.261620 3.615482 -62.050001 -45.897502 32.112546 146.956566 -73.322110 -122.757809 -4.370939 -18.732602 -10.208719 18.641714 5.089413 -2.956367 38.001686 15.016825 0.000070 -79.307591 54.949297 -59.581232 0.107566 6.364086 -7.217875 
-10.338702 7.145666 90.196228 -121.493720 3.119921 83.727129 14.309380 5.311961 -5.978025 -6.875552 0.289598 27.946254 1.584393 11.583481 -27.363025 nan nan nan -12.499308 -11.299320 -11.541009 2.763332 -12.350577 23.294361 2.795561 -7.942645 -11.547724 nan nan nan -7.953882 2.923394 4.620182 7.667808 -6.409347 13.024775 2.120284 -0.507734 -7.092811 3.157043 -20.690440 16.210617 5.879479 -18.399209 16.952242 -17.601021 -10.749370 4.090871 -64.757924 -46.777185 33.332635 143.881175 -72.888168 -120.200604 -9.727918 -18.816310 -7.942797 19.027107 5.401840 -1.693358 35.742841 14.379733 -1.426761 -80.927441 55.081436 -60.858926 9.366374 6.476985 -5.609147 
-10.343849 7.122765 90.180183 -121.494388 3.094954 83.625097 14.300613 5.294919 -5.860405 -6.831354 0.247564 27.881299 1.742027 11.615684 -27.375420 nan nan nan -12.514249 -11.328874 -11.416505 2.724179 -12.317140 23.230663 2.854438 -7.967536 -11.492268 nan nan nan -8.039594 3.019330 4.691282 7.687390 -6.349235 13.140963 2.163203 -0.495401 -7.106174 3.420988 -20.709609 15.829576 5.744778 -18.595781 17.168379 -17.460263 -10.741091 4.157512 -65.172691 -47.048645 33.553310 143.523635 -72.899137 -119.905202 -10.136565 -18.683539 -7.580156 19.094989 5.341099 -1.418392 35.508395 14.458047 -1.694669 -81.140581 55.035788 -60.831439 10.026883 6.194316 -4.908138 
-10.318099 7.113989 90.173485 -121.537579 3.072230 83.545322 14.332507 5.331356 -5.774528 -6.864145 0.309641 27.877244 1.767225 11.611303 -27.281748 nan nan nan -12.520883 -11.342380 -11.370067 2.722366 -12.248659 23.269270 2.919540 -7.933103 -11.586938 nan nan nan -8.265452 3.175391 4.772714 7.759925 -6.291001 13.266044 2.216096 -0.417563 -7.256927 3.858987 -20.435265 15.639881 6.540804 -18.588526 17.466008 -17.301553 -10.717622 4.412559 -65.599358 -47.467875 33.918398 142.796703 -72.987094 -119.206500 -10.452433 -18.630936 -7.328748 19.324757 5.163710 -1.117254 35.204046 14.603444 -1.947575 -81.193034 54.849895 -60.903118 10.459790 6.197015 -4.635456 
-10.294610 7.131876 90.165352 -121.650368 3.068824 83.344083 14.453415 5.472416 -5.508783 -7.013629 0.425463 27.885553 1.753960 11.587422 -27.071355 nan nan nan -12.504863 -11.298957 -11.182991 2.763955 -11.962418 23.331250 2.652328 -7.921404 -11.763854 nan nan nan -8.614784 3.462758 4.857201 7.981321 -6.209857 14.113429 2.419870 -0.368737 -7.963813 4.199178 -20.244193 14.983868 6.361209 -18.734619 17.559378 -16.941376 -10.803239 4.572315 -66.261385 -47.739133 34.444207 141.746348 -72.839899 -117.925614 -10.756929 -18.691942 -7.335428 19.394008 4.925403 -1.211298 35.013909 14.761565 -1.684972 -81.171732 54.397228 -60.671704 10.805942 6.529424 -5.055044 
-10.276152 7.136731 90.176804 -121.656819 3.080084 83.347938 14.468971 5.506113 -5.536913 -7.044200 0.458598 27.956174 1.676029 11.589603 -27.016855 nan nan nan -12.475844 -11.232078 -11.186541 2.794807 -11.830715 23.341514 2.618380 -7.968553 -11.740745 nan nan nan -8.595292 3.394059 4.876163 7.941418 -6.260290 14.038800 2.399570 -0.291796 -7.940662 4.210705 -20.302633 15.014527 6.280404 -18.773264 17.638132 -16.849111 -10.902450 4.556919 -66.086764 -47.574388 34.257674 141.861108 -72.742234 -117.784503 -10.653910 -18.704664 -7.517366 19.421544 5.037890 -1.198025 35.083551 14.727601 -1.600509 -81.101844 54.255458 -60.693736 10.890266 6.761373 -5.540705 
-10.241624 7.165833 90.200920 -121.629313 3.118713 83.319101 14.546955 5.559002 -5.588514 -6.966093 0.028214 28.134238 1.752490 11.234681 -26.780363 nan nan nan -12.382629 -11.238889 -11.156938 2.766839 -11.775402 23.323270 2.494369 -8.006070 -11.773902 nan nan nan -8.707400 3.437371 4.854387 8.020656 -6.272500 14.144677 2.516956 -0.219616 -7.978299 4.167674 -20.775603 15.300739 6.189238 -19.165858 17.637732 -16.893711 -11.029867 4.593923 -66.142797 -47.537240 34.215182 141.718140 -72.742308 -117.696122 -10.738927 -18.847265 -7.618649 19.435675 5.087728 -1.231419 34.934601 14.585183 -1.816234 -81.086158 54.305938 -60.747903 11.335208 6.859652 -5.345537 
-10.224721 7.180681 90.202728 -121.633896 3.076396 83.276385 14.509746 5.600076 -5.510062 -6.993310 -0.076401 28.096828 1.721174 11.239878 -26.705526 nan nan nan -12.422465 -11.320601 -11.152493 2.773605 -11.731082 23.377897 2.416697 -7.954442 -11.882206 nan nan nan -8.863835 3.436933 4.771350 7.992690 -6.329448 14.399247 2.500030 -0.029525 -8.071243 3.383628 -20.556472 15.869428 6.816263 -19.404711 17.039508 -16.747663 -11.154051 4.789783 -66.206731 -47.756528 34.233920 141.358828 -72.766170 -117.385903 -10.761592 -18.953092 -7.746878 19.641451 5.126769 -1.151946 34.744090 14.491066 -2.108302 -81.082123 54.337473 -60.869826 11.548089 6.852078 -4.856303 
-10.217812 7.177654 90.198814 -121.614178 3.085830 83.221205 14.526340 5.599236 -5.445693 -6.972548 -0.073665 28.062367 1.662906 11.205190 -26.673585 nan nan nan -12.409159 -11.339861 -11.102579 2.755732 -11.725440 23.383151 2.404703 -7.971676 -11.923531 nan nan nan -8.857381 3.393443 4.767506 7.984533 -6.415354 14.416347 2.521942 -0.000130 -7.835426 3.828939 -20.525455 15.663453 6.818912 -19.296753 16.796540 -16.759008 -11.089757 4.518846 -66.242556 -47.717602 34.300113 141.487671 -72.772066 -117.594419 -10.667963 -18.909617 -7.754468 19.593115 5.217991 -1.318198 34.796866 14.567151 -1.914283 -81.067069 54.228789 -60.816525 11.360431 6.902624 -4.956236 
-10.219217 7.172282 90.193336 -121.644270 3.084104 83.205803 14.533816 5.601185 -5.411689 -6.973034 -0.043107 28.053671 1.650028 11.209198 -26.656963 nan nan nan -12.412994 -11.335178 -11.134247 2.752072 -11.759394 23.436432 2.466852 -7.941025 -11.985499 nan nan nan -8.871327 3.428380 4.708334 7.973860 -6.421749 14.355455 2.539210 -0.019447 -7.675843 3.785967 -20.351818 15.692706 6.948168 -19.190004 16.654483 -16.784099 -11.132809 4.473408 -66.184839 -47.734634 34.226922 141.543483 -72.827260 -117.748464 -10.621542 -18.866994 -7.648430 19.698471 5.283557 -1.367822 34.663915 14.540183 -1.950100 -81.013889 54.260818 -60.870977 11.373626 6.919958 -4.832211 
-10.216007 7.170004 90.184944 -121.693962 3.081369 83.247356 14.530892 5.600265 -5.430428 -6.977200 -0.031332 28.026773 1.703084 11.292262 -26.669933 nan nan nan -12.402862 -11.311171 -11.239974 2.785767 -11.766312 23.489312 2.464963 -7.946917 -12.014131 nan nan nan -8.903837 3.544470 4.576865 8.028918 -6.350472 14.477572 2.597236 -0.130923 -7.822229 3.669272 -20.332691 15.871066 6.950454 -19.088516 16.509138 -16.856114 -11.214350 4.542728 -66.131630 -47.729772 34.181139 141.288468 -72.842898 -117.618661 -10.648990 -18.877225 -7.663022 19.689753 5.283834 -1.318822 34.610737 14.500433 -1.955537 -80.977407 54.226248 -60.803692 11.250084 6.894639 -4.867757 
